<svg width="64" height="64" viewBox="0 0 64 64" fill="none" xmlns="http://www.w3.org/2000/svg">
<rect width="64" height="64" fill="black"/>
<path d="M41.34 40.2881C39.996 40.2881 38.708 40.1121 37.476 39.7601C36.244 39.3921 35.252 38.9201 34.5 38.3441L35.82 35.4161C36.54 35.9281 37.388 36.3521 38.364 36.6881C39.356 37.0081 40.356 37.1681 41.364 37.1681C42.132 37.1681 42.748 37.0961 43.212 36.9521C43.692 36.7921 44.044 36.5761 44.268 36.3041C44.492 36.0321 44.604 35.7201 44.604 35.3681C44.604 34.9201 44.428 34.5681 44.076 34.3121C43.724 34.0401 43.26 33.8241 42.684 33.6641C42.108 33.4881 41.468 33.3281 40.764 33.1841C40.076 33.0241 39.38 32.8321 38.676 32.6081C37.988 32.3841 37.356 32.0961 36.78 31.7441C36.204 31.3921 35.732 30.9281 35.364 30.3521C35.012 29.7761 34.836 29.0401 34.836 28.1441C34.836 27.1841 35.092 26.3121 35.604 25.5281C36.132 24.7281 36.916 24.0961 37.956 23.6321C39.012 23.1521 40.332 22.9121 41.916 22.9121C42.972 22.9121 44.012 23.0401 45.036 23.2961C46.06 23.5361 46.964 23.9041 47.748 24.4001L46.548 27.3521C45.764 26.9041 44.98 26.5761 44.196 26.3681C43.412 26.1441 42.644 26.0321 41.892 26.0321C41.14 26.0321 40.524 26.1201 40.044 26.2961C39.564 26.4721 39.22 26.7041 39.012 26.9921C38.804 27.2641 38.7 27.5841 38.7 27.9521C38.7 28.3841 38.876 28.7361 39.228 29.0081C39.58 29.2641 40.044 29.4721 40.62 29.6321C41.196 29.7921 41.828 29.9521 42.516 30.1121C43.22 30.2721 43.916 30.4561 44.604 30.6641C45.308 30.8721 45.948 31.1521 46.524 31.5041C47.1 31.8561 47.564 32.3201 47.916 32.8961C48.284 33.4721 48.468 34.2001 48.468 35.0801C48.468 36.0241 48.204 36.8881 47.676 37.6721C47.148 38.4561 46.356 39.0881 45.3 39.5681C44.26 40.0481 42.94 40.2881 41.34 40.2881Z" fill="white"/>
<path d="M15.9922 40.0002V23.2002H23.6242C25.4482 23.2002 27.0562 23.5522 28.4482 24.2562C29.8402 24.9442 30.9282 25.9122 31.7122 27.1602C32.4962 28.4082 32.8882 29.8882 32.8882 31.6002C32.8882 33.2962 32.4962 34.7762 31.7122 36.0402C30.9282 37.2882 29.8402 38.2642 28.4482 38.9682C27.0562 39.6562 25.4482 40.0002 23.6242 40.0002H15.9922ZM19.8802 36.8082H23.4322C24.5522 36.8082 25.5202 36.6002 26.3362 36.1842C27.1682 35.7522 27.8082 35.1442 28.2562 34.3602C28.7202 33.5762 28.9522 32.6562 28.9522 31.6002C28.9522 30.5282 28.7202 29.6082 28.2562 28.8402C27.8082 28.0562 27.1682 27.4562 26.3362 27.0402C25.5202 26.6082 24.5522 26.3922 23.4322 26.3922H19.8802V36.8082Z" fill="white"/>
<path d="M48.6672 56.944C54.4381 53.088 58.6935 47.3503 60.7082 40.7085C62.4823 34.8601 62.4224 28.6294 60.5694 22.8464C61.0428 22.316 61.3306 21.6163 61.3306 20.8495C61.3306 19.1926 59.9874 17.8495 58.3306 17.8495C56.6737 17.8495 55.3306 19.1926 55.3306 20.8495C55.3306 22.2973 56.3563 23.5057 57.7207 23.7874C59.3804 28.9849 59.4314 34.5828 57.8374 39.8376C56.0241 45.8152 52.1943 50.9792 47.0004 54.4496C41.8066 57.92 35.5701 59.4822 29.3536 58.87C23.1371 58.2577 17.3252 55.5089 12.9082 51.0919C8.49121 46.6749 5.74237 40.8631 5.13007 34.6466C4.51777 28.4301 6.07989 22.1936 9.55027 16.9997C13.0207 11.8059 18.1846 7.97599 24.1622 6.16267C29.6601 4.49484 35.5335 4.62785 40.9311 6.51988C41.7129 6.79392 42.5893 6.43472 42.9063 5.66935C43.2233 4.90398 42.8608 4.02271 42.0806 3.74433C36.0403 1.58924 29.4535 1.42251 23.2913 3.29186C16.6495 5.30666 10.9118 9.56208 7.05586 15.333C3.19988 21.104 1.46418 28.0334 2.14452 34.9406C2.82485 41.8479 5.87912 48.3055 10.7869 53.2132C15.6947 58.121 22.1524 61.1752 29.0596 61.8555C35.9668 62.5358 42.8962 60.8 48.6672 56.944Z" fill="white"/>
<path fill-rule="evenodd" clip-rule="evenodd" d="M49 44C49 44.5523 48.5523 45 48 45L16 45C15.4477 45 15 44.5523 15 44C15 43.4477 15.4477 43 16 43L48 43C48.5523 43 49 43.4477 49 44Z" fill="white"/>
</svg>
